<svg width="92" height="19" viewBox="0 0 92 19" fill="none" xmlns="http://www.w3.org/2000/svg">
<path d="M1.162 16V6.2H5.404C6.28133 6.2 7.03733 6.34467 7.672 6.634C8.30667 6.914 8.79667 7.32 9.142 7.852C9.48733 8.384 9.66 9.01867 9.66 9.756C9.66 10.484 9.48733 11.114 9.142 11.646C8.79667 12.178 8.30667 12.5887 7.672 12.878C7.03733 13.158 6.28133 13.298 5.404 13.298H2.422L3.43 12.276V16H1.162ZM3.43 12.528L2.422 11.45H5.278C5.978 11.45 6.50067 11.3007 6.846 11.002C7.19133 10.7033 7.364 10.288 7.364 9.756C7.364 9.21467 7.19133 8.79467 6.846 8.496C6.50067 8.19733 5.978 8.048 5.278 8.048H2.422L3.43 6.97V12.528ZM11.2619 16V8.468H13.4459V16H11.2619ZM12.3539 7.418C11.9526 7.418 11.6259 7.30133 11.3739 7.068C11.1219 6.83467 10.9959 6.54533 10.9959 6.2C10.9959 5.85467 11.1219 5.56533 11.3739 5.332C11.6259 5.09867 11.9526 4.982 12.3539 4.982C12.7552 4.982 13.0819 5.094 13.3339 5.318C13.5859 5.53267 13.7119 5.81267 13.7119 6.158C13.7119 6.522 13.5859 6.82533 13.3339 7.068C13.0912 7.30133 12.7646 7.418 12.3539 7.418ZM14.5208 16L17.8948 11.576L17.8528 12.78L14.6188 8.468H17.0688L19.1128 11.282L18.1888 11.31L20.3028 8.468H22.6268L19.3788 12.738V11.562L22.7388 16H20.2608L18.1188 13.004L19.0288 13.13L16.9008 16H14.5208ZM27.3046 16.112C26.4459 16.112 25.6899 15.944 25.0366 15.608C24.3926 15.272 23.8933 14.8147 23.5386 14.236C23.1839 13.648 23.0066 12.9807 23.0066 12.234C23.0066 11.478 23.1793 10.8107 23.5246 10.232C23.8793 9.644 24.3599 9.18667 24.9666 8.86C25.5733 8.524 26.2593 8.356 27.0246 8.356C27.7619 8.356 28.4246 8.51467 29.0126 8.832C29.6099 9.14 30.0813 9.588 30.4266 10.176C30.7719 10.7547 30.9446 11.45 30.9446 12.262C30.9446 12.346 30.9399 12.444 30.9306 12.556C30.9213 12.6587 30.9119 12.7567 30.9026 12.85H24.7846V11.576H29.7546L28.9146 11.954C28.9146 11.562 28.8353 11.2213 28.6766 10.932C28.5179 10.6427 28.2986 10.4187 28.0186 10.26C27.7386 10.092 27.4119 10.008 27.0386 10.008C26.6653 10.008 26.3339 10.092 26.0446 10.26C25.7646 10.4187 25.5453 10.6473 25.3866 10.946C25.2279 11.2353 25.1486 11.5807 25.1486 11.982V12.318C25.1486 12.7287 25.2373 13.0927 25.4146 13.41C25.6013 13.718 25.8579 13.956 26.1846 14.124C26.5206 14.2827 26.9126 14.362 27.3606 14.362C27.7619 14.362 28.1119 14.3013 28.4106 14.18C28.7186 14.0587 28.9986 13.8767 29.2506 13.634L30.4126 14.894C30.0673 15.286 29.6333 15.5893 29.1106 15.804C28.5879 16.0093 27.9859 16.112 27.3046 16.112ZM32.3986 16V5.612H34.5826V16H32.3986Z" fill="#0076CE"/>
<path d="M44.0067 18.814C43.316 18.814 42.6394 18.7207 41.9767 18.534C41.3234 18.3567 40.7867 18.0953 40.3667 17.75L41.1507 16.434C41.4774 16.7047 41.888 16.9193 42.3827 17.078C42.8867 17.246 43.3954 17.33 43.9087 17.33C44.73 17.33 45.332 17.1387 45.7147 16.756C46.0974 16.3827 46.2887 15.818 46.2887 15.062V13.732L46.4287 12.038L46.3727 10.344V8.524H48.0387V14.866C48.0387 16.2193 47.6934 17.2133 47.0027 17.848C46.312 18.492 45.3134 18.814 44.0067 18.814ZM43.7827 15.664C43.0734 15.664 42.4294 15.5147 41.8507 15.216C41.2814 14.908 40.8287 14.4833 40.4927 13.942C40.166 13.4007 40.0027 12.766 40.0027 12.038C40.0027 11.3193 40.166 10.6893 40.4927 10.148C40.8287 9.60667 41.2814 9.18667 41.8507 8.888C42.4294 8.58933 43.0734 8.44 43.7827 8.44C44.4174 8.44 44.9867 8.566 45.4907 8.818C45.9947 9.07 46.396 9.462 46.6947 9.994C47.0027 10.526 47.1567 11.2073 47.1567 12.038C47.1567 12.8687 47.0027 13.5547 46.6947 14.096C46.396 14.628 45.9947 15.0247 45.4907 15.286C44.9867 15.538 44.4174 15.664 43.7827 15.664ZM44.0487 14.18C44.4874 14.18 44.8794 14.0913 45.2247 13.914C45.57 13.7273 45.836 13.4753 46.0227 13.158C46.2187 12.8313 46.3167 12.458 46.3167 12.038C46.3167 11.618 46.2187 11.2493 46.0227 10.932C45.836 10.6053 45.57 10.358 45.2247 10.19C44.8794 10.0127 44.4874 9.924 44.0487 9.924C43.61 9.924 43.2134 10.0127 42.8587 10.19C42.5134 10.358 42.2427 10.6053 42.0467 10.932C41.86 11.2493 41.7667 11.618 41.7667 12.038C41.7667 12.458 41.86 12.8313 42.0467 13.158C42.2427 13.4753 42.5134 13.7273 42.8587 13.914C43.2134 14.0913 43.61 14.18 44.0487 14.18ZM54.9454 16V14.488L54.8474 14.166V11.52C54.8474 11.0067 54.6934 10.61 54.3854 10.33C54.0774 10.0407 53.6107 9.896 52.9854 9.896C52.5654 9.896 52.1501 9.96133 51.7394 10.092C51.3381 10.2227 50.9974 10.4047 50.7174 10.638L50.0314 9.364C50.4327 9.056 50.9087 8.82733 51.4594 8.678C52.0194 8.51933 52.5981 8.44 53.1954 8.44C54.2781 8.44 55.1134 8.70133 55.7014 9.224C56.2987 9.73733 56.5974 10.5353 56.5974 11.618V16H54.9454ZM52.5934 16.098C52.0334 16.098 51.5434 16.0047 51.1234 15.818C50.7034 15.622 50.3767 15.356 50.1434 15.02C49.9194 14.6747 49.8074 14.2873 49.8074 13.858C49.8074 13.438 49.9054 13.06 50.1014 12.724C50.3067 12.388 50.6381 12.122 51.0954 11.926C51.5527 11.73 52.1594 11.632 52.9154 11.632H55.0854V12.794H53.0414C52.4441 12.794 52.0427 12.892 51.8374 13.088C51.6321 13.2747 51.5294 13.508 51.5294 13.788C51.5294 14.1053 51.6554 14.3573 51.9074 14.544C52.1594 14.7307 52.5094 14.824 52.9574 14.824C53.3867 14.824 53.7694 14.726 54.1054 14.53C54.4507 14.334 54.6981 14.0447 54.8474 13.662L55.1414 14.712C54.9734 15.1507 54.6701 15.4913 54.2314 15.734C53.8021 15.9767 53.2561 16.098 52.5934 16.098ZM68.2793 8.44C68.8766 8.44 69.404 8.55667 69.8613 8.79C70.328 9.02333 70.692 9.38267 70.9533 9.868C71.2146 10.344 71.3453 10.96 71.3453 11.716V16H69.5953V11.94C69.5953 11.2773 69.4506 10.7827 69.1613 10.456C68.872 10.1293 68.4566 9.966 67.9153 9.966C67.5326 9.966 67.192 10.05 66.8933 10.218C66.604 10.386 66.3753 10.6333 66.2073 10.96C66.0486 11.2867 65.9693 11.702 65.9693 12.206V16H64.2193V11.94C64.2193 11.2773 64.0746 10.7827 63.7853 10.456C63.496 10.1293 63.0806 9.966 62.5393 9.966C62.1566 9.966 61.816 10.05 61.5173 10.218C61.228 10.386 60.9993 10.6333 60.8313 10.96C60.6726 11.2867 60.5933 11.702 60.5933 12.206V16H58.8433V8.524H60.5093V10.512L60.2153 9.924C60.4673 9.43867 60.8313 9.07 61.3073 8.818C61.7926 8.566 62.3433 8.44 62.9593 8.44C63.6593 8.44 64.266 8.61267 64.7793 8.958C65.302 9.30333 65.6473 9.826 65.8153 10.526L65.1293 10.288C65.372 9.728 65.7733 9.28 66.3333 8.944C66.8933 8.608 67.542 8.44 68.2793 8.44ZM77.1093 16.098C76.2786 16.098 75.5506 15.9347 74.9253 15.608C74.3093 15.272 73.8286 14.8147 73.4833 14.236C73.1473 13.6573 72.9793 12.9993 72.9793 12.262C72.9793 11.5153 73.1426 10.8573 73.4693 10.288C73.8053 9.70933 74.2626 9.25667 74.8413 8.93C75.4293 8.60333 76.0966 8.44 76.8433 8.44C77.5713 8.44 78.2199 8.59867 78.7893 8.916C79.3586 9.23333 79.8066 9.68133 80.1333 10.26C80.4599 10.8387 80.6233 11.52 80.6233 12.304C80.6233 12.3787 80.6186 12.4627 80.6093 12.556C80.6093 12.6493 80.6046 12.738 80.5953 12.822H74.3653V11.66H79.6713L78.9853 12.024C78.9946 11.5947 78.9059 11.2167 78.7193 10.89C78.5326 10.5633 78.2759 10.3067 77.9493 10.12C77.6319 9.93333 77.2633 9.84 76.8433 9.84C76.4139 9.84 76.0359 9.93333 75.7093 10.12C75.3919 10.3067 75.1399 10.568 74.9533 10.904C74.7759 11.2307 74.6873 11.618 74.6873 12.066V12.346C74.6873 12.794 74.7899 13.1907 74.9953 13.536C75.2006 13.8813 75.4899 14.1473 75.8633 14.334C76.2366 14.5207 76.6659 14.614 77.1513 14.614C77.5713 14.614 77.9493 14.5487 78.2853 14.418C78.6213 14.2873 78.9199 14.082 79.1813 13.802L80.1193 14.88C79.7833 15.272 79.3586 15.5753 78.8453 15.79C78.3413 15.9953 77.7626 16.098 77.1093 16.098ZM84.6143 16.098C83.9889 16.098 83.3869 16.0187 82.8083 15.86C82.2389 15.692 81.7863 15.4913 81.4503 15.258L82.1223 13.928C82.4583 14.1427 82.8596 14.32 83.3263 14.46C83.7929 14.6 84.2596 14.67 84.7263 14.67C85.2769 14.67 85.6736 14.5953 85.9163 14.446C86.1683 14.2967 86.2943 14.096 86.2943 13.844C86.2943 13.6387 86.2103 13.4847 86.0423 13.382C85.8743 13.27 85.6549 13.186 85.3843 13.13C85.1136 13.074 84.8103 13.0227 84.4743 12.976C84.1476 12.9293 83.8163 12.8687 83.4803 12.794C83.1536 12.71 82.8549 12.5933 82.5843 12.444C82.3136 12.2853 82.0943 12.0753 81.9263 11.814C81.7583 11.5527 81.6743 11.2073 81.6743 10.778C81.6743 10.302 81.8096 9.89133 82.0802 9.546C82.3509 9.19133 82.7289 8.92067 83.2142 8.734C83.7089 8.538 84.2923 8.44 84.9643 8.44C85.4683 8.44 85.9769 8.496 86.4903 8.608C87.0036 8.72 87.4283 8.87867 87.7643 9.084L87.0923 10.414C86.7376 10.1993 86.3783 10.0547 86.0143 9.98C85.6596 9.896 85.3049 9.854 84.9503 9.854C84.4183 9.854 84.0216 9.93333 83.7603 10.092C83.5083 10.2507 83.3823 10.4513 83.3823 10.694C83.3823 10.918 83.4663 11.086 83.6343 11.198C83.8023 11.31 84.0216 11.3987 84.2923 11.464C84.5629 11.5293 84.8616 11.5853 85.1883 11.632C85.5243 11.6693 85.8556 11.73 86.1823 11.814C86.5089 11.898 86.8076 12.0147 87.0783 12.164C87.3583 12.304 87.5823 12.5047 87.7503 12.766C87.9183 13.0273 88.0023 13.368 88.0023 13.788C88.0023 14.2547 87.8623 14.6607 87.5823 15.006C87.3116 15.3513 86.9243 15.622 86.4203 15.818C85.9163 16.0047 85.3143 16.098 84.6143 16.098Z" fill="#00447C"/>
<rect x="84" width="4" height="4" fill="#00447C"/>
<rect x="88" y="4" width="4" height="4" fill="#00447C"/>
</svg>
